<svg width="981" height="710" viewBox="0 0 981 710" fill="none" xmlns="http://www.w3.org/2000/svg">
<path d="M261.917 689.665C253.317 689.665 245.017 686.365 238.817 680.365L10.1169 459.165C-3.08312 446.365 -3.38312 425.365 9.31688 412.165C22.1169 398.965 43.1169 398.665 56.3169 411.365L258.017 606.465L704.617 13.2651C715.617 -1.43493 736.517 -4.33492 751.117 6.66508C765.817 17.6651 768.717 38.5651 757.717 53.1651L288.517 676.465C282.817 684.065 274.017 688.865 264.617 689.565C263.717 689.665 262.817 689.665 261.917 689.665Z" fill="#00E447"/>
<path d="M946.817 363.465H725.617C707.317 363.465 692.417 348.565 692.417 330.265C692.417 311.865 707.317 297.065 725.617 297.065H946.817C965.217 297.065 980.017 311.965 980.017 330.265C980.017 348.565 965.117 363.465 946.817 363.465Z" fill="#00E447"/>
<path d="M946.817 536.565H582.817C564.517 536.565 549.617 521.665 549.617 503.365C549.617 485.065 564.517 470.165 582.817 470.165H946.817C965.217 470.165 980.017 485.065 980.017 503.365C980.017 521.765 965.117 536.565 946.817 536.565Z" fill="#00E447"/>
<path d="M946.817 709.765H471.917C453.517 709.765 438.717 694.865 438.717 676.565C438.717 658.165 453.617 643.365 471.917 643.365H946.817C965.217 643.365 980.017 658.265 980.017 676.565C980.017 694.865 965.117 709.765 946.817 709.765Z" fill="#00E447"/>
</svg>
